<svg width="10" height="12" viewBox="0 0 10 12" fill="none" xmlns="http://www.w3.org/2000/svg">
<g clip-path="url(#clip0_329_757)">
<path fill-rule="evenodd" clip-rule="evenodd" d="M2.26793 0.938905C2.1765 0.688334 1.82221 0.688334 1.73079 0.938905L1.31936 2.07033L0.187929 2.48176C-0.0626428 2.57319 -0.0626428 2.92748 0.187929 3.01891L1.31936 3.43033L1.73079 4.56176C1.82221 4.81233 2.1765 4.81233 2.26793 4.56176L2.67936 3.43033L3.81079 3.01891C4.06136 2.92748 4.06136 2.57319 3.81079 2.48176L2.67936 2.07033L2.26793 0.938905Z" fill="#408BFF"/>
</g>
<path fill-rule="evenodd" clip-rule="evenodd" d="M6.53586 3.62781C6.353 3.12667 5.64443 3.12667 5.46157 3.62781L4.63871 5.89067L2.37586 6.71352C1.87471 6.89638 1.87471 7.60495 2.37586 7.78781L4.63871 8.61067L5.46157 10.8735C5.64443 11.3747 6.353 11.3747 6.53586 10.8735L7.35871 8.61067L9.62157 7.78781C10.1227 7.60495 10.1227 6.89638 9.62157 6.71352L7.35871 5.89067L6.53586 3.62781Z" fill="#408BFF"/>
<defs>
<clipPath id="clip0_329_757">
<rect width="4" height="4" fill="white" transform="translate(0 0.750488)"/>
</clipPath>
</defs>
</svg>
