<svg width="24" height="24" viewBox="0 0 24 24" fill="none" xmlns="http://www.w3.org/2000/svg">
<path d="M4 5C3.73478 5 3.48043 5.10536 3.29289 5.29289C3.10536 5.48043 3 5.73478 3 6V7C3 7.26522 3.10536 7.51957 3.29289 7.70711C3.48043 7.89464 3.73478 8 4 8H20C20.2652 8 20.5196 7.89464 20.7071 7.70711C20.8946 7.51957 21 7.26522 21 7V6C21 5.73478 20.8946 5.48043 20.7071 5.29289C20.5196 5.10536 20.2652 5 20 5H4Z" fill="currentColor"/>
<path fill-rule="evenodd" clip-rule="evenodd" d="M4 9.5H20L19.189 17.21C19.1371 17.7015 18.905 18.1564 18.5376 18.487C18.1701 18.8175 17.6933 19.0003 17.199 19H6.802C6.30774 19.0003 5.8309 18.8175 5.46343 18.487C5.09596 18.1564 4.8639 17.7015 4.812 17.21L4 9.5ZM9 13C9 12.7348 9.10536 12.4804 9.29289 12.2929C9.48043 12.1054 9.73478 12 10 12H14C14.2652 12 14.5196 12.1054 14.7071 12.2929C14.8946 12.4804 15 12.7348 15 13C15 13.2652 14.8946 13.5196 14.7071 13.7071C14.5196 13.8946 14.2652 14 14 14H10C9.73478 14 9.48043 13.8946 9.29289 13.7071C9.10536 13.5196 9 13.2652 9 13Z" fill="currentColor"/>
</svg>
