<svg width="24" height="24" viewBox="0 0 24 24" fill="none" xmlns="http://www.w3.org/2000/svg">
<path d="M20 0C22.2091 2.57702e-07 24 1.79086 24 4V20C24 22.2091 22.2091 24 20 24H4C1.79086 24 6.44266e-08 22.2091 0 20V4C2.57706e-07 1.79086 1.79086 6.44256e-08 4 0H20ZM6.5 20C6.22386 20 6 20.2239 6 20.5C6 20.7761 6.22386 21 6.5 21H17.5C17.7761 21 18 20.7761 18 20.5C18 20.2239 17.7761 20 17.5 20H6.5ZM6.5 18C6.22386 18 6 18.2239 6 18.5C6 18.7761 6.22386 19 6.5 19H17.5C17.7761 19 18 18.7761 18 18.5C18 18.2239 17.7761 18 17.5 18H6.5ZM21.1807 3.27246C20.7787 3.17274 20.3723 3.41741 20.2725 3.81934C20.0011 4.91309 19.6932 6.11919 19.3818 7.32715C19.0565 7.52754 18.7723 7.60924 18.5195 7.61133C18.2503 7.61345 17.9483 7.52792 17.6025 7.28809C17.0615 6.9128 16.4283 6.65318 15.7295 6.62695C15.0235 6.6005 14.3106 6.81491 13.626 7.28711C12.8531 7.82007 12.2198 7.79862 11.79 7.68262C11.5631 7.62132 11.379 7.52883 11.2529 7.45215C11.1905 7.41415 11.1439 7.3812 11.1162 7.36035C11.1053 7.3521 11.0975 7.34563 11.0928 7.3418L11.0723 7.32422L11.0498 7.30664L10.5957 7.9043C11.0146 7.35316 11.0467 7.31014 11.0488 7.30664V7.30566L11.0469 7.30469C11.0459 7.30393 11.0451 7.30264 11.0439 7.30176C11.0415 7.29994 11.0383 7.29823 11.0352 7.2959C11.0286 7.29111 11.0203 7.28508 11.0107 7.27832C10.9915 7.26478 10.9658 7.24772 10.9346 7.22754C10.8719 7.18705 10.7845 7.13388 10.6758 7.07715C10.4592 6.9642 10.1494 6.83096 9.76562 6.74219C8.98322 6.56128 7.91812 6.57346 6.75879 7.25879C5.95048 7.73667 5.40634 7.69763 5.10645 7.61328C4.94382 7.56753 4.82307 7.49944 4.74707 7.44727C4.70934 7.42135 4.68372 7.39998 4.6709 7.38867L4.66211 7.38086C4.65889 7.37755 4.65463 7.37531 4.65137 7.37207L3.72559 3.81152C3.62131 3.41075 3.2123 3.17031 2.81152 3.27441C2.41075 3.37869 2.17031 3.7877 2.27441 4.18848L5.27441 15.7197C5.36039 16.0502 5.65857 16.2812 6 16.2812H18C18.3392 16.2811 18.6356 16.0532 18.7236 15.7256H18.7246V15.7246C18.7248 15.7238 18.7251 15.7224 18.7256 15.7207L18.7451 15.6475C18.7588 15.5964 18.7787 15.5211 18.8047 15.4238C18.857 15.2282 18.9334 14.9432 19.0283 14.5869C19.2182 13.8743 19.4841 12.8746 19.7861 11.7275C20.39 9.4343 21.1404 6.54734 21.7275 4.18066C21.8273 3.77869 21.5826 3.37227 21.1807 3.27246ZM15.6729 8.12598C16.0269 8.13925 16.3882 8.27162 16.7471 8.52051C17.3012 8.90488 17.9005 9.11631 18.5312 9.11133C18.6646 9.11026 18.7959 9.09683 18.9258 9.07715C18.7199 9.86744 18.522 10.6352 18.335 11.3457C18.0334 12.4909 17.7687 13.4887 17.5791 14.2002C17.5196 14.4234 17.4673 14.6187 17.4238 14.7812H6.5791L5.11133 9.13965C5.77304 9.22484 6.58947 9.10076 7.52148 8.5498C8.30578 8.08613 8.96823 8.09783 9.42773 8.2041C9.66463 8.2589 9.8548 8.34066 9.98242 8.40723C10.0457 8.44022 10.0925 8.46845 10.1201 8.48633C10.1263 8.49035 10.1315 8.49423 10.1357 8.49707L10.1367 8.49805C10.1558 8.51376 10.1816 8.53403 10.2129 8.55762C10.2755 8.60486 10.363 8.66664 10.4727 8.7334C10.6907 8.86612 11.0058 9.02461 11.3994 9.13086C12.2115 9.35005 13.3067 9.329 14.4775 8.52148C14.9268 8.21162 15.3259 8.11304 15.6729 8.12598Z" fill="url(#paint0_linear_1618_5543)"/>
<defs>
<linearGradient id="paint0_linear_1618_5543" x1="12" y1="0" x2="12" y2="24" gradientUnits="userSpaceOnUse">
<stop stop-color="#9EBEFF"/>
<stop offset="1" stop-color="#CBC7FF"/>
</linearGradient>
</defs>
</svg>
