<svg width="28" height="20" viewBox="0 0 28 20" fill="none" xmlns="http://www.w3.org/2000/svg">
<path fill-rule="evenodd" clip-rule="evenodd" d="M25.8339 0.233848C25.7204 -0.0779492 25.2796 -0.0779492 25.1661 0.233848L24.6507 1.65068L23.2338 2.16606C22.9221 2.27963 22.9221 2.72036 23.2338 2.83394L24.6507 3.34932L25.1661 4.76615C25.2796 5.07795 25.7204 5.07795 25.8339 4.76615L26.3493 3.34932L27.7662 2.83394C28.0779 2.72036 28.0779 2.27963 27.7662 2.16606L26.3493 1.65068L25.8339 0.233848Z" fill="#B3D0FF"/>
<path fill-rule="evenodd" clip-rule="evenodd" d="M2.83394 15.2338C2.72036 14.9221 2.27963 14.9221 2.16606 15.2338L1.65068 16.6507L0.233848 17.1661C-0.0779492 17.2796 -0.0779492 17.7204 0.233848 17.8339L1.65068 18.3493L2.16606 19.7662C2.27963 20.0779 2.72036 20.0779 2.83394 19.7662L3.34932 18.3493L4.76615 17.8339C5.07795 17.7204 5.07795 17.2796 4.76615 17.1661L3.34932 16.6507L2.83394 15.2338Z" fill="#C4C3F7"/>
<path d="M14 1C18.9706 1 23 5.02944 23 10C23 14.9706 18.9706 19 14 19C9.02944 19 5 14.9706 5 10C5 5.02944 9.02944 1 14 1ZM16.2627 11.5742C16.0278 11.4293 15.7193 11.5025 15.5742 11.7373C15.1427 12.4351 14.5472 12.7339 13.998 12.7324C13.4479 12.7308 12.853 12.4275 12.4248 11.7363C12.2793 11.5019 11.971 11.4299 11.7363 11.5752C11.5019 11.7207 11.4299 12.029 11.5752 12.2637C12.1598 13.2072 13.0548 13.73 13.9961 13.7324C14.9385 13.7348 15.837 13.2152 16.4258 12.2627C16.5707 12.0278 16.4975 11.7193 16.2627 11.5742ZM12 6C11.4477 6 11 6.44772 11 7V9C11 9.55228 11.4477 10 12 10C12.5523 10 13 9.55228 13 9V7C13 6.44772 12.5523 6 12 6ZM16 6C15.4477 6 15 6.44772 15 7V9C15 9.55228 15.4477 10 16 10C16.5523 10 17 9.55228 17 9V7C17 6.44772 16.5523 6 16 6Z" fill="url(#paint0_linear_1617_5375)"/>
<defs>
<linearGradient id="paint0_linear_1617_5375" x1="14" y1="1" x2="14" y2="19" gradientUnits="userSpaceOnUse">
<stop stop-color="#BFDBFF"/>
<stop offset="1" stop-color="#CBC7FF"/>
</linearGradient>
</defs>
</svg>
