<svg width="24" height="24" viewBox="0 0 24 24" fill="none" xmlns="http://www.w3.org/2000/svg">
<path d="M10 4C14.9706 4 19 8.02944 19 13C19 15.8726 17.6522 18.4283 15.5566 20.0762L16.7598 21.6797C16.8587 21.8115 16.7644 22 16.5996 22H9.57031C9.54302 22 9.51861 21.9932 9.49609 21.9844C4.75998 21.7229 1 17.8014 1 13C1 8.02944 5.02944 4 10 4Z" fill="currentColor"/>
<path d="M7 16C7.7948 16.7944 9.28221 16.8056 10 16" stroke="white" stroke-linecap="round"/>
<rect x="10" y="10" width="2" height="4" rx="1" fill="white"/>
<rect x="5" y="10" width="2" height="4" rx="1" fill="white"/>
<path d="M17.0713 2.03809C17.4996 1.26943 18.6838 1.32444 19.0039 2.20312L19.749 4.25L21.7969 4.99609L21.9619 5.07129C22.6792 5.471 22.6792 6.529 21.9619 6.92871L21.7969 7.00391L19.749 7.74902L19.0039 9.79688C18.6838 10.6756 17.4996 10.7306 17.0713 9.96191L16.9961 9.79688L16.25 7.74902L14.2031 7.00391C13.2658 6.66246 13.2658 5.33754 14.2031 4.99609L16.25 4.25L16.9961 2.20312L17.0713 2.03809Z" fill="currentColor" stroke="white"/>
<path fill-rule="evenodd" clip-rule="evenodd" d="M22.2672 10.1871C22.1763 9.93764 21.8237 9.93764 21.7328 10.1871L21.3205 11.3205L20.1871 11.7328C19.9376 11.8237 19.9376 12.1763 20.1871 12.2672L21.3205 12.6795L21.7328 13.8129C21.8237 14.0624 22.1763 14.0624 22.2672 13.8129L22.6795 12.6795L23.8129 12.2672C24.0624 12.1763 24.0624 11.8237 23.8129 11.7328L22.6795 11.3205L22.2672 10.1871Z" fill="currentColor"/>
</svg>
