<svg width="34" height="36" viewBox="0 0 34 36" fill="none" xmlns="http://www.w3.org/2000/svg">
<path d="M4.25 0C3.12283 0 2.04183 0.49473 1.2448 1.37535C0.447767 2.25598 0 3.45036 0 4.69575L0 23.4788C0 24.7242 0.447767 25.9185 1.2448 26.7992C2.04183 27.6798 3.12283 28.1745 4.25 28.1745H9.5625C9.8924 28.1745 10.2178 28.2594 10.5128 28.4224C10.8079 28.5854 11.0646 28.8221 11.2625 29.1137L15.3 35.0608C15.4979 35.3524 15.7546 35.5891 16.0497 35.7521C16.3447 35.9151 16.6701 36 17 36C17.3299 36 17.6553 35.9151 17.9503 35.7521C18.2454 35.5891 18.5021 35.3524 18.7 35.0608L22.7375 29.1137C22.9354 28.8221 23.1921 28.5854 23.4872 28.4224C23.7822 28.2594 24.1076 28.1745 24.4375 28.1745H29.75C30.8772 28.1745 31.9582 27.6798 32.7552 26.7992C33.5522 25.9185 34 24.7242 34 23.4788V4.69575C34 3.45036 33.5522 2.25598 32.7552 1.37535C31.9582 0.49473 30.8772 0 29.75 0L4.25 0Z" fill="#48547B"/>
<circle cx="17" cy="14" r="9" fill="url(#paint0_linear_1373_12877)"/>
<path fill-rule="evenodd" clip-rule="evenodd" d="M28.8339 4.23385C28.7204 3.92205 28.2796 3.92205 28.1661 4.23385L27.6507 5.65068L26.2338 6.16606C25.9221 6.27963 25.9221 6.72036 26.2338 6.83394L27.6507 7.34932L28.1661 8.76615C28.2796 9.07795 28.7204 9.07795 28.8339 8.76615L29.3493 7.34932L30.7662 6.83394C31.0779 6.72036 31.0779 6.27963 30.7662 6.16606L29.3493 5.65068L28.8339 4.23385Z" fill="#B3D0FF"/>
<path d="M4.88379 19.1309C5.08018 18.5921 5.80671 18.5588 6.06934 19.0303L6.11621 19.1309L6.58301 20.416L7.86914 20.8838L7.96973 20.9307C8.4412 21.1933 8.40793 21.9198 7.86914 22.1162L6.58301 22.583L6.11621 23.8691C5.90673 24.4438 5.09327 24.4438 4.88379 23.8691L4.41602 22.583L3.13086 22.1162C2.55616 21.9067 2.55616 21.0933 3.13086 20.8838L4.41602 20.416L4.88379 19.1309Z" fill="#C4C3F7" stroke="#48547B" stroke-width="0.6"/>
<path d="M15 16C16.0129 17.6351 17.9797 17.6507 19 16" stroke="#48547B" stroke-linecap="round"/>
<rect x="18" y="10" width="2" height="4" rx="1" fill="#48547B"/>
<rect x="14" y="10" width="2" height="4" rx="1" fill="#48547B"/>
<defs>
<linearGradient id="paint0_linear_1373_12877" x1="17" y1="5" x2="17" y2="23" gradientUnits="userSpaceOnUse">
<stop stop-color="#BFDBFF"/>
<stop offset="1" stop-color="#CBC7FF"/>
</linearGradient>
</defs>
</svg>
