<svg width="408" height="245" viewBox="0 0 408 245" fill="none" xmlns="http://www.w3.org/2000/svg">
<rect x="325.165" y="128.663" width="22.2465" height="25.9542" transform="rotate(-14.575 325.165 128.663)" fill="#FFD4D4"/>
<rect x="360.291" y="208.869" width="22.2465" height="14.831" transform="rotate(27.7241 360.291 208.869)" fill="#CAE5FF"/>
<rect width="22.2465" height="14.831" transform="matrix(-0.885198 0.465215 0.465215 0.885198 19.6934 103.853)" fill="#DDFFCA"/>
<rect width="22.2465" height="14.831" transform="matrix(-0.968628 0.248514 0.248514 0.968628 56.0449 224.347)" fill="#FFD4AF"/>
<rect width="22.2465" height="14.831" transform="matrix(-0.494737 -0.869043 -0.869043 0.494737 179.701 128.849)" fill="#CAE5FF"/>
<rect x="286.846" y="15.564" width="22.5505" height="20.7535" transform="rotate(78.5888 286.846 15.564)" fill="#CAE5FF"/>
<rect x="266.453" y="81.4297" width="22.2465" height="14.831" transform="rotate(-60.3476 266.453 81.4297)" fill="#FFC593"/>
<rect x="80.1494" y="64.9216" width="22.2465" height="25.9542" transform="rotate(28.6376 80.1494 64.9216)" fill="#FFE9E9"/>
<rect x="197.6" y="55.3225" width="16.3622" height="15.2696" transform="rotate(28.6376 197.6 55.3225)" fill="#FFE9E9"/>
<rect x="389.63" y="41.7747" width="18.5387" height="14.831" transform="rotate(18.1819 389.63 41.7747)" fill="#C9F3BD"/>
<rect x="59.752" y="189.124" width="18.5387" height="14.831" transform="rotate(18.1819 59.752 189.124)" fill="#C9F3BD"/>
<rect x="121.939" y="5.59839" width="22.2465" height="25.9542" transform="rotate(-14.575 121.939 5.59839)" fill="#FFD4D4"/>
</svg>
