<svg width="24" height="24" viewBox="0 0 24 24" fill="none" xmlns="http://www.w3.org/2000/svg">
<rect x="2" y="6.5" width="20" height="3" rx="1.5" fill="#9EBEFF"/>
<rect x="2" y="2" width="20" height="3" rx="1.5" fill="#9EBEFF"/>
<path fill-rule="evenodd" clip-rule="evenodd" d="M1 11H23L21.8849 19.9274C21.8135 20.4965 21.4944 21.0232 20.9892 21.406C20.4839 21.7887 19.8282 22.0003 19.1486 22H4.85275C4.17315 22.0003 3.51748 21.7887 3.01221 21.406C2.50694 21.0232 2.18786 20.4965 2.1165 19.9274L1 11ZM7.875 15.0526C7.875 14.7455 8.01987 14.451 8.27773 14.2339C8.53559 14.0167 8.88533 13.8947 9.25 13.8947H14.75C15.1147 13.8947 15.4644 14.0167 15.7223 14.2339C15.9801 14.451 16.125 14.7455 16.125 15.0526C16.125 15.3597 15.9801 15.6542 15.7223 15.8714C15.4644 16.0885 15.1147 16.2105 14.75 16.2105H9.25C8.88533 16.2105 8.53559 16.0885 8.27773 15.8714C8.01987 15.6542 7.875 15.3597 7.875 15.0526Z" fill="url(#paint0_linear_1616_5344)"/>
<defs>
<linearGradient id="paint0_linear_1616_5344" x1="12" y1="11" x2="12" y2="22" gradientUnits="userSpaceOnUse">
<stop stop-color="#9EBEFF"/>
<stop offset="1" stop-color="#CBC7FF"/>
</linearGradient>
</defs>
</svg>
