<svg width="24" height="24" viewBox="0 0 24 24" fill="none" xmlns="http://www.w3.org/2000/svg">
<g clip-path="url(#clip0_1617_5358)">
<path d="M7.11111 1H3.44444C2.79614 1 2.17438 1.25754 1.71596 1.71596C1.25754 2.17438 1 2.79614 1 3.44444V7.11111M23 7.11111V3.44444C23 2.79614 22.7425 2.17438 22.284 1.71596C21.8256 1.25754 21.2039 1 20.5556 1H16.8889M16.8889 23H20.5556C21.2039 23 21.8256 22.7425 22.284 22.284C22.7425 21.8256 23 21.2039 23 20.5556V16.8889M1 16.8889V20.5556C1 21.2039 1.25754 21.8256 1.71596 22.284C2.17438 22.7425 2.79614 23 3.44444 23H7.11111" stroke="url(#paint0_linear_1617_5358)" stroke-width="1.5" stroke-linecap="round" stroke-linejoin="round"/>
<path d="M8.07129 6.67615L12.1328 6.96716C12.4728 6.99153 12.7978 7.14177 13.0439 7.38806L18.7881 13.1322C19.0504 13.3946 19.2032 13.7455 19.2119 14.1078C19.2206 14.4699 19.0848 14.8139 18.835 15.0638L15.0635 18.8353C14.8135 19.0853 14.4696 19.2209 14.1074 19.2123C13.7451 19.2036 13.3942 19.0508 13.1318 18.7885L7.38672 13.0443C7.14077 12.7984 6.99125 12.4738 6.9668 12.1342L6.67578 8.07166C6.66215 7.8813 6.68857 7.69189 6.75293 7.51599C6.81731 7.34018 6.91849 7.18148 7.0498 7.05017C7.18116 6.91885 7.33976 6.81765 7.51562 6.7533C7.69154 6.68893 7.88091 6.6625 8.07129 6.67615ZM15.2686 12.1879C15.1771 11.9372 14.8219 11.9372 14.7305 12.1879L14.3193 13.3197L13.1875 13.7318C12.937 13.8234 12.9369 14.1775 13.1875 14.2689L14.3193 14.6801L14.7305 15.8119C14.8219 16.0625 15.1771 16.0625 15.2686 15.8119L15.6797 14.6801L16.8115 14.2689C17.0621 14.1775 17.0621 13.8233 16.8115 13.7318L15.6797 13.3197L15.2686 12.1879Z" fill="url(#paint1_linear_1617_5358)"/>
<path fill-rule="evenodd" clip-rule="evenodd" d="M8.26866 16.188C8.1772 15.9373 7.8228 15.9373 7.73134 16.188L7.31978 17.3198L6.18799 17.7313C5.93734 17.8228 5.93734 18.1772 6.18799 18.2687L7.31978 18.6802L7.73134 19.812C7.8228 20.0627 8.1772 20.0627 8.26866 19.812L8.68022 18.6802L9.81201 18.2687C10.0627 18.1772 10.0627 17.8228 9.81201 17.7313L8.68022 17.3198L8.26866 16.188Z" fill="url(#paint2_linear_1617_5358)"/>
</g>
<defs>
<linearGradient id="paint0_linear_1617_5358" x1="12" y1="1" x2="12" y2="23" gradientUnits="userSpaceOnUse">
<stop stop-color="#9EC8FF"/>
<stop offset="0.546203" stop-color="#AFC4FF"/>
<stop offset="1" stop-color="#BDC1FF"/>
</linearGradient>
<linearGradient id="paint1_linear_1617_5358" x1="7" y1="7" x2="17" y2="17" gradientUnits="userSpaceOnUse">
<stop stop-color="#9EC8FF"/>
<stop offset="1" stop-color="#C6BDFF"/>
</linearGradient>
<linearGradient id="paint2_linear_1617_5358" x1="8" y1="14.5" x2="8" y2="20" gradientUnits="userSpaceOnUse">
<stop stop-color="#9EC8FF"/>
<stop offset="1" stop-color="#BDC1FF"/>
</linearGradient>
<clipPath id="clip0_1617_5358">
<rect width="24" height="24" fill="white"/>
</clipPath>
</defs>
</svg>
