<svg width="24" height="24" viewBox="0 0 24 24" fill="none" xmlns="http://www.w3.org/2000/svg">
<g clip-path="url(#clip0_21_482)">
<path fill-rule="evenodd" clip-rule="evenodd" d="M15.9762 4.18799C15.8847 3.93734 15.5303 3.93734 15.4389 4.18799L15.0273 5.31978L13.8955 5.73134C13.6449 5.8228 13.6449 6.1772 13.8955 6.26866L15.0273 6.68022L15.4389 7.81201C15.5303 8.06266 15.8847 8.06266 15.9762 7.81201L16.3877 6.68022L17.5195 6.26866C17.7702 6.1772 17.7702 5.8228 17.5195 5.73134L16.3877 5.31978L15.9762 4.18799Z" fill="currentColor "/>
<path fill-rule="evenodd" clip-rule="evenodd" d="M21.403 8.28198C21.2658 7.90601 20.7342 7.90601 20.597 8.28198L19.9797 9.97967L18.282 10.597C17.906 10.7342 17.906 11.2658 18.282 11.403L19.9797 12.0203L20.597 13.718C20.7342 14.094 21.2658 14.094 21.403 13.718L22.0203 12.0203L23.718 11.403C24.094 11.2658 24.094 10.7342 23.718 10.597L22.0203 9.97967L21.403 8.28198Z" fill="currentColor "/>
<path d="M1.53553 5.53551C1.69976 5.37129 1.8999 5.24593 2.1218 5.16746C2.34352 5.08913 2.58267 5.05909 2.82407 5.07976L7.97891 5.52101C8.41042 5.55798 8.82534 5.75402 9.14177 6.07067L16.527 13.4559C16.8644 13.7933 17.064 14.2414 17.0815 14.701C17.0989 15.1603 16.9327 15.5942 16.6202 15.9066L11.9067 20.6202C11.5942 20.9327 11.1604 21.0989 10.701 21.0815C10.2414 21.064 9.79329 20.8643 9.45596 20.527L2.0707 13.1417C1.75404 12.8253 1.558 12.4104 1.52103 11.9789L1.07978 6.82405C1.05908 6.58243 1.0897 6.34298 1.16817 6.12108C1.24664 5.89929 1.37138 5.69968 1.53553 5.53551ZM3.7991 7.65683C3.40858 8.04736 3.40858 8.68052 3.7991 9.07104C4.18964 9.46138 4.82286 9.46151 5.21332 9.07104C5.60376 8.68058 5.60365 8.04736 5.21332 7.65683C4.8228 7.26631 4.18963 7.26632 3.7991 7.65683Z" fill="currentColor "/>
</g>
<defs>
<clipPath id="clip0_21_482">
<rect width="24" height="24" fill="white"/>
</clipPath>
</defs>
</svg>
