<svg width="90" height="90" viewBox="0 0 90 90" fill="none" xmlns="http://www.w3.org/2000/svg">
<path d="M18 72H60V90H0V30H18V72Z" fill="currentColor"/>
<path d="M72 18L30 18L30 -5.24537e-06L90 0L90 60L72 60L72 18Z" fill="currentColor"/>
<path d="M49.247 31.2007C49.8255 39.5468 55.751 46.1191 63.0004 46.1997V46.2016C55.751 46.282 49.8255 52.8546 49.247 61.2007H49.1538C48.5753 52.8546 42.6498 46.282 35.4004 46.2016V46.1997C42.6498 46.1191 48.5753 39.5468 49.1538 31.2007H49.247Z" fill="currentColor"/>
<path d="M34.6708 27.8164C34.9286 31.6185 37.5693 34.6126 40.8 34.6493V34.6501C37.5693 34.6868 34.9286 37.6809 34.6708 41.4831H34.6292C34.3714 37.6809 31.7307 34.6868 28.5 34.6501V34.6493C31.7307 34.6126 34.3714 31.6185 34.6292 27.8164H34.6708Z" fill="currentColor"/>
</svg>
