<svg width="64" height="64" viewBox="0 0 64 64" fill="none" xmlns="http://www.w3.org/2000/svg">
<path fill-rule="evenodd" clip-rule="evenodd" d="M32.0534 38.0911L56.6357 62.6734C57.4553 63.4649 58.5529 63.9029 59.6923 63.893C60.8317 63.8831 61.9216 63.4261 62.7272 62.6204C63.5329 61.8148 63.9899 60.7249 63.9998 59.5855C64.0097 58.4461 63.5717 57.3485 62.7802 56.5289L38.1979 31.9466L62.7802 7.36431C63.5717 6.54475 64.0097 5.44707 63.9998 4.30771C63.9899 3.16834 63.5329 2.07844 62.7272 1.27276C61.9216 0.467074 60.8317 0.0100651 59.6923 0.00016427C58.5529 -0.00973652 57.4553 0.428262 56.6357 1.21982L32.0534 25.8021L7.47111 1.21982C6.64785 0.447829 5.55655 0.0264087 4.42811 0.0447326C3.29967 0.0630565 2.22262 0.519688 1.42487 1.318C0.627116 2.11632 0.171245 3.19369 0.15372 4.32214C0.136194 5.4506 0.558387 6.5416 1.33096 7.36431L25.9089 31.9466L1.32662 56.5289C0.911582 56.9297 0.580536 57.4092 0.352795 57.9394C0.125053 58.4696 0.00517794 59.0398 0.000164072 59.6168C-0.0048498 60.1938 0.105097 60.766 0.323591 61.3C0.542085 61.8341 0.864749 62.3192 1.27276 62.7272C1.68076 63.1353 2.16594 63.4579 2.69999 63.6764C3.23403 63.8949 3.80623 64.0049 4.38322 63.9998C4.96021 63.9948 5.53042 63.8749 6.06059 63.6472C6.59075 63.4195 7.07025 63.0884 7.47111 62.6734L32.0534 38.0911Z" fill="currentColor"/>
</svg>
