<svg width="24" height="24" viewBox="0 0 24 24" fill="none" xmlns="http://www.w3.org/2000/svg">
<path fill-rule="evenodd" clip-rule="evenodd" d="M18.1343 2.09399C18.0886 1.96867 17.9114 1.96867 17.8657 2.09399L17.6599 2.65989L17.094 2.86567C16.9687 2.9114 16.9687 3.0886 17.094 3.13433L17.6599 3.34011L17.8657 3.90601C17.9114 4.03133 18.0886 4.03133 18.1343 3.90601L18.3401 3.34011L18.906 3.13433C19.0313 3.0886 19.0313 2.9114 18.906 2.86567L18.3401 2.65989L18.1343 2.09399Z" fill="currentColor"/>
<path d="M13.8089 4.96345L19.7444 5.60993C20.0132 5.63934 20.2102 5.87754 20.1888 6.14704L19.8314 10.5855C19.8104 10.8378 19.604 11.0353 19.3509 11.0445L17.7874 11.0982L20.136 17.0572C20.1868 17.1866 20.1806 17.3323 20.1204 17.4576C20.06 17.5826 19.9504 17.6774 19.8177 17.7183L15.1019 19.1666L15.0999 19.1685L9.85773 20.7799C9.72481 20.8206 9.58056 20.8036 9.46027 20.734C9.34009 20.6641 9.25355 20.5473 9.22296 20.4117L7.81964 14.1627L6.49445 14.9957C6.27975 15.1305 5.99816 15.0837 5.83917 14.8863L3.05011 11.4156C2.88105 11.2047 2.91069 10.8966 3.11652 10.7213L7.66437 6.85114C7.81471 6.72335 8.024 6.69705 8.19855 6.7779L8.26984 6.81892C9.57903 7.71561 10.5534 7.81603 11.2581 7.61286C11.9564 7.38628 12.7078 6.75616 13.2884 5.27595L13.3245 5.20173C13.4236 5.03668 13.6126 4.94203 13.8089 4.96345ZM16.4827 6.69978C16.414 6.51215 16.1481 6.51215 16.0794 6.69978L15.7708 7.54939L14.9222 7.85798C14.7342 7.92657 14.7342 8.19173 14.9222 8.26032L15.7708 8.56892L16.0794 9.41853C16.1481 9.60616 16.414 9.60616 16.4827 9.41853L16.7913 8.56892L17.64 8.26032C17.8279 8.19173 17.8279 7.92657 17.64 7.85798L16.7913 7.54939L16.4827 6.69978Z" fill="currentColor"/>
</svg>
